<?xml version="1.0" encoding="UTF-8"?>
<svg id="Layer_2" data-name="Layer 2" xmlns="http://www.w3.org/2000/svg" viewBox="0 0 630.26 346.38">
  <defs>
    <style>
      .cls-1 {
        fill: #f28d26;
      }

      .cls-2 {
        fill: #ca6928;
      }

      .cls-3 {
        fill: #f4a11d;
      }
    </style>
  </defs>
  <g id="Layer_1-2" data-name="Layer 1">
    <g>
      <path class="cls-3" d="M515.23,231.36h0c31.74,0,57.51,25.77,57.51,57.51h-57.51v-57.51h0Z" transform="translate(1087.98 520.23) rotate(180)"/>
      <path class="cls-2" d="M515.23,173.84h0c31.74,0,57.51,25.77,57.51,57.51h-57.51v-57.51h0Z" transform="translate(746.59 -341.39) rotate(90)"/>
      <path class="cls-1" d="M572.75,116.33h57.51c0,31.74-25.77,57.51-57.51,57.51h0v-57.51h0Z" transform="translate(1203.01 290.17) rotate(-180)"/>
      <path class="cls-3" d="M572.75,58.81h57.51c0,31.74-25.77,57.51-57.51,57.51h0v-57.51h0Z" transform="translate(689.08 -513.94) rotate(90)"/>
      <path class="cls-3" d="M572.75,288.87h0c31.74,0,57.51,25.77,57.51,57.51h-57.51v-57.51h0Z" transform="translate(283.88 919.13) rotate(-90)"/>
      <path class="cls-1" d="M572.75,231.36h0c31.74,0,57.51,25.77,57.51,57.51h-57.51v-57.51h0Z" transform="translate(1203.01 520.23) rotate(180)"/>
      <path class="cls-2" d="M572.75,173.84h0c31.74,0,57.51,25.77,57.51,57.51h-57.51v-57.51h0Z" transform="translate(1203.01 405.2) rotate(180)"/>
      <path class="cls-3" d="M572.75,1.3h57.51c0,31.74-25.77,57.51-57.51,57.51h0V1.3h0Z" transform="translate(631.56 -571.45) rotate(90)"/>
      <path class="cls-3" d="M514.06,58.81h57.51c0,31.74-25.77,57.51-57.51,57.51h0v-57.51h0Z" transform="translate(1085.64 175.14) rotate(180)"/>
      <path class="cls-2" d="M293.4,177.31h57.51c0,31.74-25.77,57.51-57.51,57.51h0v-57.51h0Z" transform="translate(528.23 -116.08) rotate(90)"/>
      <path class="cls-3" d="M178.13,58.23h0c31.74,0,57.51,25.77,57.51,57.51h-57.51v-57.51h0Z" transform="translate(293.88 -119.91) rotate(90)"/>
      <path class="cls-2" d="M59.04,1.3h0c31.74,0,57.51,25.77,57.51,57.51h-57.51V1.3h0Z"/>
      <path class="cls-3" d="M408.19,58.23h0c31.74,0,57.51,25.77,57.51,57.51h-57.51v-57.51h0Z" transform="translate(523.93 -349.96) rotate(90)"/>
      <path class="cls-2" d="M350.68,58.23h0c31.74,0,57.51,25.77,57.51,57.51h-57.51v-57.51h0Z" transform="translate(466.42 -292.45) rotate(90)"/>
      <path class="cls-2" d="M465.7,58.23h0c31.74,0,57.51,25.77,57.51,57.51h-57.51v-57.51h0Z" transform="translate(581.45 -407.48) rotate(90)"/>
      <path class="cls-1" d="M0,0h57.51C57.51,31.74,31.74,57.51,0,57.51H0V0H0Z" transform="translate(57.51 0) rotate(90)"/>
      <path class="cls-3" d="M235.41,119.8h57.51c0,31.74-25.77,57.51-57.51,57.51h0v-57.51h0Z"/>
      <path class="cls-3" d="M235.65.71h0c31.74,0,57.51,25.77,57.51,57.51h-57.51V.71h0Z" transform="translate(528.81 58.94) rotate(180)"/>
      <path class="cls-1" d="M178.13.71h0c31.74,0,57.51,25.77,57.51,57.51h-57.51V.71h0Z" transform="translate(236.36 -177.42) rotate(90)"/>
      <path class="cls-2" d="M120.62.71h0c31.74,0,57.51,25.77,57.51,57.51h-57.51V.71h0Z" transform="translate(178.85 -119.91) rotate(90)"/>
      <path class="cls-2" d="M408.19.71h0c31.74,0,57.51,25.77,57.51,57.51h-57.51V.71h0Z" transform="translate(873.9 58.94) rotate(180)"/>
      <path class="cls-2" d="M465.7.71h0c31.74,0,57.51,25.77,57.51,57.51h-57.51V.71h0Z" transform="translate(988.92 58.94) rotate(180)"/>
      <path class="cls-3" d="M350.68.71h0c31.74,0,57.51,25.77,57.51,57.51h-57.51V.71h0Z" transform="translate(408.9 -349.96) rotate(90)"/>
      <path class="cls-1" d="M293.16.71h0c31.74,0,57.51,25.77,57.51,57.51h-57.51V.71h0Z" transform="translate(351.39 -292.45) rotate(90)"/>
      <path class="cls-1" d="M523.22.71h0c31.74,0,57.51,25.77,57.51,57.51h-57.51V.71h0Z" transform="translate(581.45 -522.51) rotate(90)"/>
      <path class="cls-3" d="M457.72,173.84h57.51c0,31.74-25.77,57.51-57.51,57.51h0v-57.51h0Z" transform="translate(689.08 -283.88) rotate(90)"/>
    </g>
  </g>
</svg>